<svg width="189" height="40" viewBox="0 0 189 40" fill="none" xmlns="http://www.w3.org/2000/svg">
<rect width="40" height="40" fill="#272727"/>
<path d="M7.56757 19.4595L10.2102 16.8169M10.2102 16.8169L19.4595 7.56763L28.7087 16.8169M10.2102 16.8169V30.0301C10.2102 30.7598 10.8018 31.3514 11.5315 31.3514H15.4955M28.7087 16.8169L31.3514 19.4595M28.7087 16.8169V30.0301C28.7087 30.7598 28.1171 31.3514 27.3874 31.3514H23.4234M15.4955 31.3514C16.2252 31.3514 16.8168 30.7598 16.8168 30.0301V24.7448C16.8168 24.0151 17.4084 23.4235 18.1381 23.4235H20.7808C21.5105 23.4235 22.1021 24.0151 22.1021 24.7448V30.0301C22.1021 30.7598 22.6937 31.3514 23.4234 31.3514M15.4955 31.3514H23.4234" stroke="#F9F9F9" stroke-width="2" stroke-linecap="round" stroke-linejoin="round"/>
<path d="M73.184 12.2V29H70.064V21.8H61.376V29H58.256V12.2H61.376V19.136H70.064V12.2H73.184ZM85.5337 29.24C83.8217 29.24 82.2777 28.872 80.9017 28.136C79.5257 27.384 78.4457 26.352 77.6617 25.04C76.8777 23.712 76.4857 22.232 76.4857 20.6C76.4857 18.968 76.8777 17.496 77.6617 16.184C78.4457 14.856 79.5257 13.824 80.9017 13.088C82.2777 12.336 83.8217 11.96 85.5337 11.96C87.2457 11.96 88.7897 12.336 90.1657 13.088C91.5417 13.824 92.6217 14.848 93.4057 16.16C94.1897 17.472 94.5817 18.952 94.5817 20.6C94.5817 22.248 94.1897 23.728 93.4057 25.04C92.6217 26.352 91.5417 27.384 90.1657 28.136C88.7897 28.872 87.2457 29.24 85.5337 29.24ZM85.5337 26.504C86.6537 26.504 87.6617 26.256 88.5577 25.76C89.4537 25.248 90.1577 24.544 90.6697 23.648C91.1817 22.736 91.4377 21.72 91.4377 20.6C91.4377 19.48 91.1817 18.472 90.6697 17.576C90.1577 16.664 89.4537 15.96 88.5577 15.464C87.6617 14.952 86.6537 14.696 85.5337 14.696C84.4137 14.696 83.4057 14.952 82.5097 15.464C81.6137 15.96 80.9097 16.664 80.3977 17.576C79.8857 18.472 79.6297 19.48 79.6297 20.6C79.6297 21.72 79.8857 22.736 80.3977 23.648C80.9097 24.544 81.6137 25.248 82.5097 25.76C83.4057 26.256 84.4137 26.504 85.5337 26.504ZM113.321 29L113.297 17.864L107.777 27.08H106.385L100.865 18.008V29H97.8888V12.2H100.457L107.129 23.336L113.681 12.2H116.249L116.273 29H113.321ZM133.411 26.384V29H120.811V12.2H133.075V14.816H123.931V19.184H132.043V21.752H123.931V26.384H133.411ZM143.949 23.072V29H140.829V23.12L134.229 12.2H137.565L142.485 20.384L147.453 12.2H150.525L143.949 23.072ZM159.69 29.24C157.978 29.24 156.434 28.872 155.058 28.136C153.682 27.384 152.602 26.352 151.818 25.04C151.034 23.712 150.642 22.232 150.642 20.6C150.642 18.968 151.034 17.496 151.818 16.184C152.602 14.856 153.682 13.824 155.058 13.088C156.434 12.336 157.978 11.96 159.69 11.96C161.402 11.96 162.946 12.336 164.322 13.088C165.698 13.824 166.778 14.848 167.562 16.16C168.346 17.472 168.738 18.952 168.738 20.6C168.738 22.248 168.346 23.728 167.562 25.04C166.778 26.352 165.698 27.384 164.322 28.136C162.946 28.872 161.402 29.24 159.69 29.24ZM159.69 26.504C160.81 26.504 161.818 26.256 162.714 25.76C163.61 25.248 164.314 24.544 164.826 23.648C165.338 22.736 165.594 21.72 165.594 20.6C165.594 19.48 165.338 18.472 164.826 17.576C164.314 16.664 163.61 15.96 162.714 15.464C161.818 14.952 160.81 14.696 159.69 14.696C158.57 14.696 157.562 14.952 156.666 15.464C155.77 15.96 155.066 16.664 154.554 17.576C154.042 18.472 153.786 19.48 153.786 20.6C153.786 21.72 154.042 22.736 154.554 23.648C155.066 24.544 155.77 25.248 156.666 25.76C157.562 26.256 158.57 26.504 159.69 26.504ZM179.269 29.24C176.949 29.24 175.141 28.592 173.845 27.296C172.549 25.984 171.901 24.112 171.901 21.68V12.2H175.021V21.56C175.021 24.856 176.445 26.504 179.293 26.504C182.125 26.504 183.541 24.856 183.541 21.56V12.2H186.613V21.68C186.613 24.112 185.965 25.984 184.669 27.296C183.389 28.592 181.589 29.24 179.269 29.24Z" fill="#272727"/>
</svg>
